<?xml version="1.0" encoding="UTF-8" standalone="no"?>
<!-- Created with Inkscape (http://www.inkscape.org/) -->

<svg
   version="1.1"
   id="svg1"
   width="767"
   height="450"
   viewBox="0 450 767 450"
   sodipodi:docname="LFH-Logo-Vetorizado.svg"
   inkscape:version="1.4.2 (f4327f4, 2025-05-13)"
   xmlns:inkscape="http://www.inkscape.org/namespaces/inkscape"
   xmlns:sodipodi="http://sodipodi.sourceforge.net/DTD/sodipodi-0.dtd"
   xmlns="http://www.w3.org/2000/svg"
   xmlns:svg="http://www.w3.org/2000/svg">
  <defs
     id="defs1" />
  <sodipodi:namedview
     id="namedview1"
     pagecolor="#505050"
     bordercolor="#eeeeee"
     borderopacity="1"
     inkscape:showpageshadow="0"
     inkscape:pageopacity="0"
     inkscape:pagecheckerboard="0"
     inkscape:deskcolor="#505050"
     inkscape:zoom="0.59120879"
     inkscape:cx="383.11338"
     inkscape:cy="682.5"
     inkscape:window-width="1920"
     inkscape:window-height="1009"
     inkscape:window-x="-8"
     inkscape:window-y="-8"
     inkscape:window-maximized="1"
     inkscape:current-layer="g1" />
  <g
     inkscape:groupmode="layer"
     inkscape:label="Image"
     id="g1">
    <path
       style="fill:#ffffff;fill-opacity:1"
       d="M 128.39405,698.45873 V 571.12559 l 2.25,-2.00266 c 5.08554,-4.52649 48.86671,-36.56259 49.3317,-36.0976 0.27699,0.27698 0.49484,54.18511 0.48412,119.79583 -0.0107,65.61072 0.24249,120.33603 0.56269,121.6118 l 0.58218,2.31957 36.64465,0.26222 36.64466,0.26221 v 24 24 l -63.25,0.25746 -63.25,0.25745 z m 141.66668,126.65156 c -1.114,-1.11402 -0.7651,-99.48106 0.3821,-107.72936 2.7129,-19.50496 11.7907,-35.66845 26.8512,-47.8099 8.5749,-6.91296 16.9281,-11.06466 27.9166,-13.87503 6.7488,-1.72605 11.3088,-1.91904 45.3434,-1.91904 h 37.84 v 24.34936 24.34935 l -41.9182,0.54112 c -23.0551,0.29761 -42.4051,0.84196 -43,1.20966 -0.7564,0.46744 -1.0818,18.84993 -1.0818,61.10953 v 60.44098 h -25.8333 c -14.2083,0 -26.1333,-0.3 -26.5,-0.66667 z m 153,0 c -0.3667,-0.36666 -0.6623,-52.45416 -0.6571,-115.75 l 0.01,-115.08333 24.0341,-28.5 c 13.2187,-15.675 25.1394,-29.61477 26.4904,-30.97727 l 2.4562,-2.47728 v 59.66826 c 0,44.49603 0.2977,59.85221 1.1706,60.3917 1.5885,0.98175 66.0246,0.59941 67.0217,-0.39768 0.4355,-0.43551 0.9079,-27.77291 1.0498,-60.74978 l 0.2579,-59.95795 h 26 26 l -0.01,53.5 c -0.012,60.79501 0.07,60.02567 -8.1593,76.9834 -3.9851,8.21223 -5.8907,10.75902 -14.2161,19 -7.7889,7.70987 -11.2398,10.32214 -18.1769,13.75962 -15.3978,7.62992 -20.5243,8.50716 -51.6883,8.84488 -14.9881,0.16243 -27.7006,0.57315 -28.25,0.91273 -0.6475,0.40017 -0.999,21.88395 -0.999,61.05839 v 60.44098 h -25.8333 c -14.2083,0 -26.1333,-0.3 -26.5,-0.66667 z m 121.3333,-55.34951 V 714.7446 l 3.25,-1.40183 c 11.5707,-4.9908 19.5242,-8.97276 24.4417,-12.23685 7.3663,-4.88947 16.6828,-13.55941 20.4423,-19.02373 1.6447,-2.39051 3.4124,-4.08557 3.9282,-3.76679 0.5648,0.34905 0.9378,21.79303 0.9378,53.90979 0,49.3546 -0.1304,53.48076 -1.75,55.34989 -2.3828,2.75007 -48.8632,37.20188 -50.1905,37.20188 -0.7331,0 -1.0595,-16.94738 -1.0595,-55.01618 z m -274.7564,-164.73382 0.2564,-73.75 91.9448,-0.25527 c 50.5696,-0.14039 92.2841,0.0846 92.699,0.5 0.4149,0.4154 -2.0175,4.13027 -5.4052,8.25527 -15.2526,18.57207 -29.8108,35.72849 -32.4486,38.23967 l -2.8778,2.73967 -45.4561,0.26033 -45.4561,0.26033 -0.2647,30.27814 -0.2647,30.27814 -2.2353,0.92736 c -1.2294,0.51005 -5.741,2.34695 -10.0257,4.08201 -14.4265,5.84183 -29.2779,17.2805 -36.3903,28.02804 -1.4218,2.14847 -2.9782,3.90631 -3.4586,3.90631 -0.4925,0 -0.7617,-32.1706 -0.6171,-73.75 z"
       id="path1"
       inkscape:label="path1"
       sodipodi:nodetypes="ccssssccccccccssssscccssscsscccsscssssccccsssssscsccscssssssssscsssscccccsssss" />
  </g>
</svg>
